<svg width="884" height="170" viewBox="0 0 884 170" fill="none" xmlns="http://www.w3.org/2000/svg">
<g clip-path="url(#clip0)">
<path d="M65.725 43.58C57.7017 43.58 51.225 45.5617 46.295 49.525C43.2983 47.9783 41.5583 46.7217 41.075 45.755C41.075 39.955 42.525 34.8317 45.425 30.385C48.325 25.8417 52.5783 23.57 58.185 23.57C63.985 23.57 73.1683 26.76 85.735 33.14C90.375 35.5567 93.42 36.9583 94.87 37.345C98.64 34.3483 102.797 31.8833 107.34 29.95C111.98 28.0167 115.992 27.05 119.375 27.05C122.855 27.05 126.045 28.065 128.945 30.095C131.845 32.125 133.295 35.17 133.295 39.23C133.295 43.29 131.652 46.8667 128.365 49.96C125.175 53.0533 120.68 54.6 114.88 54.6C112.27 54.6 109.37 54.2133 106.18 53.44C103.087 52.57 101.202 52.0867 100.525 51.99C97.5283 54.9867 94.1933 59.1433 90.52 64.46C86.9433 69.68 83.8983 75.1417 81.385 80.845C82.9317 80.6517 84.0917 80.555 84.865 80.555C92.3083 80.555 98.93 82.73 104.73 87.08C110.627 91.3333 113.575 97.23 113.575 104.77C113.575 112.31 110.772 118.932 105.165 124.635C99.655 130.338 92.1633 133.19 82.69 133.19C73.2167 133.19 65.9183 130.048 60.795 123.765C55.7683 117.482 53.255 110.135 53.255 101.725C47.165 107.428 43.25 113.663 41.51 120.43C39.2867 120.043 37.16 119.367 35.13 118.4C33.1 117.337 31.795 116.322 31.215 115.355C34.985 105.785 43.0083 96.795 55.285 88.385C57.605 80.845 61.3267 73.4017 66.45 66.055C71.67 58.7083 77.2283 52.1833 83.125 46.48C77.035 44.5467 71.235 43.58 65.725 43.58ZM103.57 104.335C103.57 100.178 101.782 96.795 98.205 94.185C94.6283 91.4783 90.955 90.125 87.185 90.125C83.415 90.125 80.225 90.6567 77.615 91.72C76.6483 95.0067 76.165 98.97 76.165 103.61C76.165 108.153 77.4217 112.117 79.935 115.5C82.545 118.787 85.8317 120.43 89.795 120.43C93.855 120.43 97.1417 118.787 99.655 115.5C102.265 112.117 103.57 108.395 103.57 104.335ZM124.16 40.245C124.16 38.4083 122.758 37.49 119.955 37.49C117.248 37.49 113.575 39.52 108.935 43.58C110.675 44.5467 112.802 45.03 115.315 45.03C117.828 45.03 119.907 44.595 121.55 43.725C123.29 42.855 124.16 41.695 124.16 40.245ZM170.362 69.97C170.555 69.7767 171.087 68.52 171.957 66.2C176.5 66.2 182.59 67.5533 190.227 70.26C187.81 78.2833 185.877 86.6933 184.427 95.49C182.977 104.19 182.252 110.425 182.252 114.195C182.252 117.868 182.638 119.705 183.412 119.705C183.992 119.705 186.118 118.787 189.792 116.95L191.532 116.08L194.142 121.155C193.272 121.928 192.112 122.895 190.662 124.055C189.308 125.215 186.698 126.81 182.832 128.84C178.965 130.773 175.485 131.74 172.392 131.74C166.398 131.74 162.918 129.033 161.952 123.62C155.765 129.033 150.158 131.74 145.132 131.74C140.202 131.74 135.997 129.807 132.517 125.94C129.133 122.073 127.442 115.983 127.442 107.67C127.442 94.7167 130.1 84.5183 135.417 77.075C140.733 69.535 147.162 65.765 154.702 65.765C160.115 65.765 165.335 67.1667 170.362 69.97ZM153.832 119.415C156.152 119.415 158.762 118.497 161.662 116.66C162.338 103.03 164.61 89.545 168.477 76.205C165.577 74.9483 163.112 74.32 161.082 74.32C157.602 74.32 154.605 77.7517 152.092 84.615C149.675 91.3817 148.467 98.8733 148.467 107.09C148.467 115.307 150.255 119.415 153.832 119.415ZM226.835 74.755C226.835 78.815 225.53 85.8233 222.92 95.78C220.31 105.64 219.005 112.117 219.005 115.21C219.005 118.207 219.44 119.705 220.31 119.705C220.89 119.705 223.113 118.787 226.98 116.95L228.72 116.08L231.185 121.155C230.315 121.928 229.155 122.895 227.705 124.055C226.255 125.215 223.548 126.81 219.585 128.84C215.621 130.773 211.948 131.74 208.565 131.74C205.181 131.74 202.523 130.725 200.59 128.695C198.656 126.568 197.69 123.765 197.69 120.285C197.69 116.708 198.898 110.425 201.315 101.435C203.731 92.3483 204.94 86.4517 204.94 83.745C204.94 79.685 203.683 75.8667 201.17 72.29L199.865 70.55L200.01 68.665C205.133 67.215 213.446 66.49 224.95 66.49C226.206 67.94 226.835 70.695 226.835 74.755ZM210.305 50.685C208.371 48.7517 207.405 46.19 207.405 43C207.405 39.81 208.71 37.0067 211.32 34.59C214.026 32.1733 217.12 30.965 220.6 30.965C224.08 30.965 226.786 31.9317 228.72 33.865C230.653 35.7983 231.62 38.36 231.62 41.55C231.62 44.6433 230.218 47.3983 227.415 49.815C224.708 52.2317 221.663 53.44 218.28 53.44C214.896 53.44 212.238 52.5217 210.305 50.685ZM247.492 131.74C244.205 131.74 241.45 130.628 239.227 128.405C237.1 126.182 236.037 123.088 236.037 119.125C236.037 115.065 238.405 102.257 243.142 80.7C247.975 59.0467 250.392 43.435 250.392 33.865L249.522 27.485C257.062 24.875 264.118 23.57 270.692 23.57C271.658 24.9233 272.142 27.2917 272.142 30.675C272.142 38.4083 269.677 53.3917 264.747 75.625C259.913 97.7617 257.497 110.667 257.497 114.34C257.497 117.917 257.932 119.705 258.802 119.705L268.952 116.08L271.562 121.155C268.275 123.765 264.263 126.182 259.527 128.405C254.887 130.628 250.875 131.74 247.492 131.74ZM278.032 118.11L279.627 80.265C279.627 76.9783 277.887 73.595 274.407 70.115L274.697 68.375C275.374 68.1817 276.002 68.0367 276.582 67.94C277.259 67.7467 277.984 67.5533 278.757 67.36C279.627 67.1667 280.594 66.9733 281.657 66.78C282.721 66.5867 283.832 66.3933 284.992 66.2C287.699 65.91 290.212 65.765 292.532 65.765C294.949 65.765 296.979 66.7317 298.622 68.665C300.362 70.5983 301.232 73.6917 301.232 77.945C301.232 82.1017 300.556 88.095 299.202 95.925C297.946 103.658 297.317 109.458 297.317 113.325C297.317 117.095 298.236 118.98 300.072 118.98C303.069 118.98 306.356 117.095 309.932 113.325C310.029 111.778 310.657 106.848 311.817 98.535C312.977 90.2217 313.557 84.18 313.557 80.41C313.557 76.64 313.267 73.4017 312.687 70.695C320.131 67.8917 326.801 66.49 332.697 66.49C333.954 67.36 334.582 70.2117 334.582 75.045C334.582 79.7817 333.761 86.4033 332.117 94.91C330.474 103.32 329.652 109.458 329.652 113.325C329.652 117.095 330.426 118.98 331.972 118.98C335.646 118.98 339.657 116.273 344.007 110.86C348.357 105.35 350.677 100.758 350.967 97.085L341.107 86.065C341.494 81.9083 342.509 78.1383 344.152 74.755C345.796 71.3717 347.342 69.0033 348.792 67.65L350.822 65.765C354.979 65.765 358.121 66.8767 360.247 69.1C362.374 71.3233 363.437 73.9333 363.437 76.93C363.437 84.5667 361.552 92.6383 357.782 101.145C354.012 109.652 348.937 116.902 342.557 122.895C336.177 128.792 329.701 131.74 323.127 131.74C319.841 131.74 317.037 130.822 314.717 128.985C312.494 127.052 310.996 124.587 310.222 121.59C303.456 128.357 296.882 131.74 290.502 131.74C286.249 131.74 283.107 130.435 281.077 127.825C279.047 125.118 278.032 121.88 278.032 118.11ZM395.341 74.755C395.341 78.815 394.036 85.8233 391.426 95.78C388.816 105.64 387.511 112.117 387.511 115.21C387.511 118.207 387.946 119.705 388.816 119.705C389.396 119.705 391.619 118.787 395.486 116.95L397.226 116.08L399.691 121.155C398.821 121.928 397.661 122.895 396.211 124.055C394.761 125.215 392.054 126.81 388.091 128.84C384.127 130.773 380.454 131.74 377.071 131.74C373.687 131.74 371.029 130.725 369.096 128.695C367.162 126.568 366.196 123.765 366.196 120.285C366.196 116.708 367.404 110.425 369.821 101.435C372.237 92.3483 373.446 86.4517 373.446 83.745C373.446 79.685 372.189 75.8667 369.676 72.29L368.371 70.55L368.516 68.665C373.639 67.215 381.952 66.49 393.456 66.49C394.712 67.94 395.341 70.695 395.341 74.755ZM378.811 50.685C376.877 48.7517 375.911 46.19 375.911 43C375.911 39.81 377.216 37.0067 379.826 34.59C382.532 32.1733 385.626 30.965 389.106 30.965C392.586 30.965 395.292 31.9317 397.226 33.865C399.159 35.7983 400.126 38.36 400.126 41.55C400.126 44.6433 398.724 47.3983 395.921 49.815C393.214 52.2317 390.169 53.44 386.786 53.44C383.402 53.44 380.744 52.5217 378.811 50.685ZM408.747 130.435H405.992C405.992 125.892 407.346 117.192 410.052 104.335C412.856 91.4783 414.257 84.18 414.257 82.44C414.257 79.25 412.904 75.8667 410.197 72.29L408.892 70.55L409.037 68.665C414.257 67.215 422.619 66.49 434.122 66.49C435.379 68.1333 436.056 71.13 436.152 75.48C444.562 69.0033 451.667 65.765 457.467 65.765C460.947 65.765 463.702 66.9733 465.732 69.39C467.859 71.8067 468.922 74.8517 468.922 78.525C468.922 82.1017 467.811 88.3367 465.587 97.23C463.364 106.123 462.252 112.117 462.252 115.21C462.252 118.207 462.639 119.705 463.412 119.705C463.992 119.705 466.022 118.787 469.502 116.95L471.242 116.08L473.852 121.155C472.982 121.928 471.822 122.895 470.372 124.055C468.922 125.215 466.216 126.81 462.252 128.84C458.386 130.773 454.906 131.74 451.812 131.74C444.756 131.74 441.227 127.728 441.227 119.705C441.227 116.322 442.291 110.087 444.417 101C446.641 91.9133 447.752 86.065 447.752 83.455C447.752 80.845 446.931 79.54 445.287 79.54C442.484 79.54 439.052 80.7483 434.992 83.165C434.702 84.8083 433.736 89.1583 432.092 96.215C428.709 111.392 427.017 122.122 427.017 128.405C423.634 129.758 417.544 130.435 408.747 130.435ZM547.195 121.155C538.979 128.212 531.729 131.74 525.445 131.74C519.259 131.74 515.682 128.647 514.715 122.46C511.815 125.36 508.577 127.632 505 129.275C501.424 130.918 498.282 131.74 495.575 131.74C490.935 131.74 486.972 129.71 483.685 125.65C480.399 121.59 478.755 115.307 478.755 106.8C478.755 94.04 481.462 84.035 486.875 76.785C492.289 69.4383 498.379 65.765 505.145 65.765C512.009 65.765 517.76 67.3117 522.4 70.405C525.397 54.745 526.895 42.42 526.895 33.43L526.17 27.34C533.42 24.8267 540.525 23.57 547.485 23.57C548.259 25.2133 548.645 27.0983 548.645 29.225C548.645 36.2817 546.519 50.6367 542.265 72.29C538.012 93.8467 535.885 108.492 535.885 116.225C535.885 118.545 536.417 119.705 537.48 119.705C538.06 119.705 539.897 118.787 542.99 116.95L544.44 116.08L547.195 121.155ZM512.25 74.32C508.867 74.32 505.919 77.655 503.405 84.325C500.989 90.995 499.78 97.6167 499.78 104.19C499.78 110.667 500.215 114.823 501.085 116.66C502.052 118.497 503.454 119.415 505.29 119.415C508.48 119.415 511.622 118.11 514.715 115.5C515.005 111.633 517.18 98.7767 521.24 76.93C517.954 75.19 514.957 74.32 512.25 74.32ZM615.077 131.74C605.507 131.74 597.773 128.163 591.877 121.01C585.98 113.76 583.032 104.19 583.032 92.3C583.032 80.41 585.062 69.6317 589.122 59.965C593.278 50.2017 599.175 42.275 606.812 36.185C614.448 30.095 622.907 27.05 632.187 27.05C635.667 27.05 638.76 27.5817 641.467 28.645C648.427 24.005 655.628 21.685 663.072 21.685C666.552 21.685 669.79 22.2167 672.787 23.28C675.88 24.2467 678.152 25.455 679.602 26.905C678.828 30.1917 677.572 33.1883 675.832 35.895C671.288 32.5117 666.697 30.82 662.057 30.82C657.417 30.82 653.163 31.7383 649.297 33.575C653.84 38.4083 656.112 45.2717 656.112 54.165C656.112 62.9617 653.792 70.985 649.152 78.235C644.512 85.485 638.712 89.11 631.752 89.11C627.595 89.11 624.212 87.37 621.602 83.89C619.088 80.41 617.832 76.06 617.832 70.84C617.832 58.2733 622.52 46.915 631.897 36.765C624.26 37.055 618.073 42.0817 613.337 51.845C608.6 61.5117 606.232 73.2083 606.232 86.935C606.232 106.945 612.032 116.95 623.632 116.95C631.558 116.95 640.017 112.02 649.007 102.16L654.082 106.365C652.825 108.588 650.747 111.343 647.847 114.63C645.043 117.917 642.24 120.672 639.437 122.895C636.633 125.118 633.008 127.148 628.562 128.985C624.115 130.822 619.62 131.74 615.077 131.74ZM646.107 55.615C646.107 47.6883 644.318 42.275 640.742 39.375C636.488 43.145 633.057 47.7367 630.447 53.15C627.933 58.5633 626.677 64.17 626.677 69.97C626.677 72.9667 627.208 75.4317 628.272 77.365C629.432 79.2983 630.882 80.265 632.622 80.265C636.392 80.265 639.582 77.6067 642.192 72.29C644.802 66.9733 646.107 61.415 646.107 55.615ZM679.59 131.74C672.92 131.74 667.7 129.42 663.93 124.78C660.16 120.043 658.275 113.47 658.275 105.06C658.275 94.33 661.127 85.0983 666.83 77.365C672.63 69.6317 680.605 65.765 690.755 65.765L695.975 66.055C697.619 65.185 699.455 64.75 701.485 64.75C709.122 64.75 712.94 71.9517 712.94 86.355C716.904 86.1617 720.915 85.63 724.975 84.76L727.295 84.18L728.165 89.835C724.975 91.1883 720.674 92.3967 715.26 93.46L712.36 94.04C710.524 104.19 706.802 113.035 701.195 120.575C695.589 128.018 688.387 131.74 679.59 131.74ZM687.42 119.27C691.48 119.27 695.105 116.66 698.295 111.44C701.582 106.22 703.854 100.71 705.11 94.91C694.767 94.91 689.595 91.0433 689.595 83.31C689.595 80.2167 690.224 77.3167 691.48 74.61L692.205 73.16C691.819 72.9667 691.335 72.87 690.755 72.87C690.175 72.87 689.74 72.9667 689.45 73.16C687.034 74.7067 684.762 78.3317 682.635 84.035C680.509 89.7383 679.445 96.2633 679.445 103.61C679.445 114.05 682.104 119.27 687.42 119.27ZM714.416 162.48C713.933 161.32 713.691 158.758 713.691 154.795C713.691 150.832 715.576 140.198 719.346 122.895C723.116 105.495 725.001 92.1067 725.001 82.73C725.001 80.8933 724.566 78.96 723.696 76.93C722.826 74.8033 721.908 73.16 720.941 72L719.636 70.405L719.781 68.52C724.325 67.07 732.348 66.345 743.851 66.345C744.915 68.375 745.591 71.2267 745.881 74.9C753.325 68.81 759.511 65.765 764.441 65.765C769.468 65.765 773.48 67.8433 776.476 72C779.57 76.1567 781.116 82.2467 781.116 90.27C781.116 104.287 778.555 114.727 773.431 121.59C768.308 128.357 761.831 131.74 754.001 131.74C749.941 131.74 746.558 131.16 743.851 130L742.401 129.42L743.416 123.765C744.286 123.958 745.301 124.055 746.461 124.055C748.975 124.055 751.15 122.895 752.986 120.575C754.92 118.255 756.37 115.307 757.336 111.73C759.27 104.577 760.236 97.955 760.236 91.865C760.236 83.165 758.448 78.815 754.871 78.815C752.068 78.815 749.071 79.9267 745.881 82.15C745.495 88.9167 743.513 100.758 739.936 117.675C736.36 134.592 734.571 148.222 734.571 158.565C729.351 160.692 722.633 161.997 714.416 162.48ZM800.338 130.58C792.315 130.58 788.303 126.133 788.303 117.24C788.303 115.113 789.27 108.975 791.203 98.825C793.136 88.675 794.103 80.2167 794.103 73.45C794.103 72 793.91 70.6467 793.523 69.39C798.743 67.36 805.896 66.345 814.983 66.345C815.466 67.6983 815.708 70.0183 815.708 73.305C815.708 76.5917 814.645 83.165 812.518 93.025C810.391 102.885 809.328 109.313 809.328 112.31C809.328 115.307 810.101 116.805 811.648 116.805C815.901 116.805 820.01 115.307 823.973 112.31C824.263 108.733 826.196 94.185 829.773 68.665C833.156 67.3117 839.246 66.635 848.043 66.635H850.798C849.638 71.1783 847.705 82.6817 844.998 101.145C842.388 119.512 840.503 131.16 839.343 136.09C838.183 141.02 836.588 145.37 834.558 149.14C832.625 152.91 830.208 155.713 827.308 157.55C824.505 159.483 821.653 160.788 818.753 161.465C815.853 162.142 812.083 162.48 807.443 162.48C802.9 162.48 798.55 160.982 794.393 157.985C790.333 155.085 788.303 152.572 788.303 150.445C788.303 149.092 789.995 147.013 793.378 144.21C796.858 141.407 799.758 139.667 802.078 138.99C807.008 143.92 810.633 149.285 812.953 155.085C815.466 155.085 817.69 152.088 819.623 146.095C821.556 140.102 822.861 131.305 823.538 119.705C821.218 122.025 817.69 124.442 812.953 126.955C808.216 129.372 804.011 130.58 800.338 130.58Z" fill="#3FB4BA"/>
</g>
<defs>
<clipPath id="clip0">
<rect width="884" height="170" fill="white"/>
</clipPath>
</defs>
</svg>
